HIERARCHY
ROOT Hips
{
	OFFSET -0.001795 -0.223333 0.028219
	CHANNELS 6 Xposition Yposition Zposition Zrotation Yrotation Xrotation 
	JOINT LeftUpLeg
	{
		OFFSET 0.069520 -0.091406 -0.006815
		CHANNELS 3 Zrotation Yrotation Xrotation
		JOINT LeftLeg
		{
			OFFSET 0.034277 -0.375199 -0.004496
			CHANNELS 3 Zrotation Yrotation Xrotation
			JOINT LeftFoot
			{
				OFFSET -0.013596 -0.397961 -0.043693
				CHANNELS 3 Zrotation Yrotation Xrotation
				JOINT LeftToe
				{
					OFFSET 0.026358 -0.055791 0.119288
					CHANNELS 3 Zrotation Yrotation Xrotation
					End Site
					{
						OFFSET 0.000000 0.000000 0.000000
					}
				}
			}
		}
	}
	JOINT RightUpLeg
	{
		OFFSET -0.067670 -0.090522 -0.004320
		CHANNELS 3 Zrotation Yrotation Xrotation
		JOINT RightLeg
		{
			OFFSET -0.038290 -0.382569 -0.008850
			CHANNELS 3 Zrotation Yrotation Xrotation
			JOINT RightFoot
			{
				OFFSET 0.015774 -0.398415 -0.042312
				CHANNELS 3 Zrotation Yrotation Xrotation
				JOINT RightToe
				{
					OFFSET -0.025372 -0.048144 0.123348
					CHANNELS 3 Zrotation Yrotation Xrotation
					End Site
					{
						OFFSET 0.000000 0.000000 0.000000
					}
				}
			}
		}
	}
	JOINT Spine
	{
		OFFSET -0.002533 0.108963 -0.026696
		CHANNELS 3 Zrotation Yrotation Xrotation
		JOINT Spine1
		{
			OFFSET 0.005487 0.135180 0.001092
			CHANNELS 3 Zrotation Yrotation Xrotation
			JOINT Spine2
			{
				OFFSET 0.001457 0.052922 0.025425
				CHANNELS 3 Zrotation Yrotation Xrotation
				JOINT Neck
				{
					OFFSET -0.002778 0.213870 -0.042857
					CHANNELS 3 Zrotation Yrotation Xrotation
					JOINT Head
					{
						OFFSET 0.005152 0.064970 0.051349
						CHANNELS 3 Zrotation Yrotation Xrotation
						End Site
						{
							OFFSET 0.000000 0.000000 0.000000
						}
					}
				}
				JOINT LeftShoulder
				{
					OFFSET 0.078845 0.121749 -0.034090
					CHANNELS 3 Zrotation Yrotation Xrotation
					JOINT LeftArm
					{
						OFFSET 0.090977 0.030469 -0.008868
						CHANNELS 3 Zrotation Yrotation Xrotation
						JOINT LeftForeArm
						{
							OFFSET 0.259612 -0.012772 -0.027456
							CHANNELS 3 Zrotation Yrotation Xrotation
							JOINT LeftHand
							{
								OFFSET 0.249234 0.008986 -0.001171
								CHANNELS 3 Zrotation Yrotation Xrotation
								End Site
								{
									OFFSET 0.000000 0.000000 0.000000
								}
							}
						}
					}
				}
				JOINT RightShoulder
				{
					OFFSET -0.081759 0.118833 -0.038615
					CHANNELS 3 Zrotation Yrotation Xrotation
					JOINT RightArm
					{
						OFFSET -0.096012 0.032551 -0.009143
						CHANNELS 3 Zrotation Yrotation Xrotation
						JOINT RightForeArm
						{
							OFFSET -0.253742 -0.013329 -0.021401
							CHANNELS 3 Zrotation Yrotation Xrotation
							JOINT RightHand
							{
								OFFSET -0.255298 0.007772 -0.005559
								CHANNELS 3 Zrotation Yrotation Xrotation
								End Site
								{
									OFFSET 0.000000 0.000000 0.000000
								}
							}
						}
					}
				}
			}
		}
	}
}
MOTION
Frames: 11
Frame Time: 0.050000
1.337493 0.973129 2.119079 179.540444 12.236881 179.917075 -15.836300 -1.166193 -4.398477 -7.859496 -13.598917 20.876218 77.676213 -49.463822 23.735209 0.000000 0.000000 0.000000 23.702679 -7.371337 -25.012419 -32.668459 -19.393277 30.558616 93.012270 -27.609202 11.952807 0.000000 0.000000 0.000000 -0.307728 -5.517204 20.967781 -0.778904 -4.502097 -20.063758 -2.364545 8.141031 20.755515 4.377758 -15.115749 -26.292267 0.000000 0.000000 0.000000 7.821380 -13.081334 -91.208366 -5.540360 51.617561 -0.933641 -61.444060 -40.016630 15.428106 0.000000 0.000000 0.000000 26.722592 -29.335086 52.156080 24.960375 46.973255 0.009294 -57.250011 49.828540 -20.408072 0.000000 0.000000 0.000000 
1.400695 0.987130 2.139069 -179.842183 14.163800 179.563047 -14.978097 -1.021304 -3.227909 -10.665653 -13.738004 19.520998 59.908636 -40.428109 32.607023 0.000000 0.000000 0.000000 19.600062 -5.873130 -22.220059 -32.740112 -20.205885 32.209915 84.787469 -21.923516 14.076337 0.000000 0.000000 0.000000 1.335785 -5.101367 19.901639 -1.099798 -4.801459 -18.845055 -2.614747 8.190375 20.813423 6.890426 -11.892141 -25.953466 0.000000 0.000000 0.000000 4.928440 -14.170894 -83.800292 -13.978071 49.547664 -5.100762 -53.934830 -46.103127 15.352676 0.000000 0.000000 0.000000 27.971022 -29.116823 46.769182 27.774168 43.302439 0.699816 -51.659897 53.252725 -19.165317 0.000000 0.000000 0.000000 
1.466645 0.990568 2.155529 -179.614335 15.314121 179.043961 -14.002296 -0.978772 -1.848452 -12.322169 -13.673066 17.994717 51.738710 -37.797132 38.790326 0.000000 0.000000 0.000000 15.332232 -4.689210 -19.060540 -32.748516 -20.713184 33.185735 90.223238 -25.486509 12.459208 0.000000 0.000000 0.000000 1.749349 -4.370375 18.497072 -0.946029 -4.916717 -17.544896 -2.799804 6.138782 20.614437 4.482004 -15.015896 -21.085145 0.000000 0.000000 0.000000 2.839491 -13.399801 -78.354771 -21.915776 47.827086 -9.121441 -42.178013 -48.356417 10.551920 0.000000 0.000000 0.000000 27.922490 -27.155786 45.249161 29.787031 41.221583 0.930495 -50.515114 53.696347 -19.332421 0.000000 0.000000 0.000000 
1.534389 0.986270 2.170128 -177.860102 16.211801 179.410324 -9.409683 -0.814275 -1.235100 -9.763883 -11.957277 17.427876 56.120746 -36.430793 33.504355 0.000000 0.000000 0.000000 10.683439 -6.592812 -19.152001 -33.602643 -22.870151 37.151514 97.753255 -27.364466 13.997551 0.000000 0.000000 0.000000 2.095760 -4.842766 19.085532 0.909646 -2.741787 -19.775210 -3.574798 6.060715 22.258914 10.237794 -10.054649 -24.762315 0.000000 0.000000 0.000000 2.174535 -14.804357 -77.584452 -24.329714 47.321706 -9.522861 -34.222072 -49.166284 7.220594 0.000000 0.000000 0.000000 29.090105 -28.777865 43.374180 31.259328 41.301372 1.026081 -49.899720 52.753557 -18.041751 0.000000 0.000000 0.000000 
1.600476 0.978981 2.183794 -176.720678 18.203665 179.164131 -4.422500 -1.520727 -1.354979 -11.507748 -12.208739 18.180253 55.787328 -34.515887 36.382809 0.000000 0.000000 0.000000 7.750956 -9.398891 -20.638407 -41.071701 -23.055429 41.272576 93.240510 -26.578850 22.510560 0.000000 0.000000 0.000000 1.635686 -4.799265 19.279032 1.864374 -2.219360 -19.807381 -4.078161 6.712727 22.797713 10.846631 -9.644116 -24.099276 0.000000 0.000000 0.000000 0.228810 -15.586352 -72.068543 -27.661053 43.622785 -10.152337 -26.359447 -51.680487 4.091435 0.000000 0.000000 0.000000 30.066580 -27.399278 43.233504 32.829749 39.645434 -0.108205 -48.037410 53.811455 -18.570838 0.000000 0.000000 0.000000 
1.663980 0.975569 2.196413 -175.883399 16.602097 179.108094 -0.024295 -3.229044 -1.100796 -12.530245 -12.205480 17.926302 56.689483 -35.339149 37.328354 0.000000 0.000000 0.000000 3.324602 -14.345179 -21.628327 -43.754357 -22.143320 41.218108 92.856891 -32.166890 26.944542 0.000000 0.000000 0.000000 1.114508 -4.880026 19.561071 3.421761 -1.487314 -20.813547 -4.164769 6.372922 23.530322 11.112533 -11.387131 -23.678903 0.000000 0.000000 0.000000 0.740708 -17.769035 -76.048976 -24.405212 45.656939 -7.975393 -26.757278 -48.489505 4.124275 0.000000 0.000000 0.000000 29.647673 -28.357002 45.884867 33.313561 41.465616 0.125764 -51.370771 53.543956 -20.077641 0.000000 0.000000 0.000000 
1.725313 0.972058 2.208202 -175.603462 15.100413 179.382858 3.016240 -4.962275 -1.029703 -12.106690 -11.465117 16.817588 57.949765 -35.951606 36.524303 0.000000 0.000000 0.000000 0.314368 -18.779619 -22.307289 -42.182639 -19.562747 36.498397 82.742036 -29.292793 31.265225 0.000000 0.000000 0.000000 1.513352 -4.783870 19.267343 3.615743 -1.180287 -21.599089 -4.313014 7.190103 25.126056 7.896717 -13.789346 -23.688513 0.000000 0.000000 0.000000 2.658154 -18.472625 -82.553485 -20.085793 50.111353 -6.413694 -30.593993 -44.960249 4.589754 0.000000 0.000000 0.000000 32.068420 -30.051507 51.893098 29.280103 45.725568 -3.286961 -57.213151 50.921141 -23.112718 0.000000 0.000000 0.000000 
1.785476 0.967630 2.220928 -176.466762 12.466279 179.972602 6.116552 -6.658787 -2.781718 -11.983582 -11.433628 17.349710 55.790909 -38.309026 39.926072 0.000000 0.000000 0.000000 -3.475711 -23.433995 -21.352897 -33.928225 -15.322324 28.397846 69.582534 -22.621866 32.021864 0.000000 0.000000 0.000000 0.980288 -4.396219 18.806933 4.456719 -1.276025 -21.760152 -4.579961 7.908476 25.914884 4.264838 -17.537241 -23.521228 0.000000 0.000000 0.000000 5.009733 -20.449789 -91.951088 -9.222388 55.684035 0.011898 -34.968596 -41.138055 5.286282 0.000000 0.000000 0.000000 31.170393 -31.250008 59.823392 24.277433 53.782340 -5.266473 -60.221686 44.525129 -21.426078 0.000000 0.000000 0.000000 
1.845499 0.960607 2.234757 -177.239943 9.260514 -179.968087 8.358763 -8.298312 -4.412442 -12.548248 -11.830174 17.784772 55.773326 -42.663261 43.170906 0.000000 0.000000 0.000000 -6.056124 -25.932144 -19.507196 -30.776783 -12.573046 23.028998 74.280236 -31.139399 31.848071 0.000000 0.000000 0.000000 0.169225 -5.440124 20.485820 3.082907 -0.066451 -24.923100 -1.421985 7.224159 28.596399 3.137374 -19.314054 -26.987447 0.000000 0.000000 0.000000 10.122303 -17.093612 -117.385249 33.394037 59.123156 29.617388 -47.704686 -27.925304 5.224031 0.000000 0.000000 0.000000 26.722493 -33.307306 72.522894 10.840978 63.588263 -10.786008 -64.816651 32.078103 -15.767056 0.000000 0.000000 0.000000 
1.905701 0.956696 2.249368 -178.071577 4.066244 -179.310294 11.755473 -11.440020 -5.814795 -10.118590 -10.132668 15.578454 52.366892 -40.965389 41.074935 0.000000 0.000000 0.000000 -8.740245 -29.065097 -17.461362 -27.764198 -11.233425 19.967943 78.629196 -33.945737 27.715929 0.000000 0.000000 0.000000 -0.979719 -6.733816 22.010827 5.043073 0.770031 -26.005544 -2.634300 7.163476 27.753244 0.955065 -28.216692 -23.085638 0.000000 0.000000 0.000000 13.946772 -8.469573 -143.301672 67.250649 44.707064 46.999444 -55.004129 -7.160820 -3.352738 0.000000 0.000000 0.000000 22.574365 -35.652420 83.511422 -9.418747 68.612339 -24.026255 -65.132018 20.268926 -9.283773 0.000000 0.000000 0.000000 
1.965693 0.957642 2.263475 -178.557574 0.936777 -179.907126 15.092500 -14.972552 -5.867194 -9.637025 -8.922033 13.075915 44.570696 -38.326375 46.195875 0.000000 0.000000 0.000000 -10.518339 -29.076551 -14.387643 -23.772412 -10.840349 18.838053 76.234200 -28.698424 22.131414 0.000000 0.000000 0.000000 -0.704923 -8.568825 23.961080 4.654102 0.452102 -26.251967 -2.305195 9.984687 27.200161 0.358590 -33.189199 -23.494232 0.000000 0.000000 0.000000 15.130010 -0.596163 -168.866401 78.452468 20.234991 38.934122 -54.866808 14.451144 -14.474861 0.000000 0.000000 0.000000 15.836895 -35.279257 100.454235 -47.013141 69.350675 -51.070697 -67.638180 4.848413 -0.940437 0.000000 0.000000 0.000000 
